<svg
  xmlns="http://www.w3.org/2000/svg"
  viewBox="0 0 64 64"
  fill="none"
>
  <rect x="9" y="26" width="15" height="30" rx="2" fill="currentColor" />
  <rect x="25" y="10" width="16" height="46" rx="2" fill="currentColor" />
  <rect x="42" y="20" width="13" height="36" rx="2" fill="currentColor" />

  <g fill="white" opacity="0.9">
    <rect x="13" y="31" width="2" height="2" rx="0.5" />
    <rect x="18" y="31" width="2" height="2" rx="0.5" />
    <rect x="13" y="37" width="2" height="2" rx="0.5" />
    <rect x="18" y="37" width="2" height="2" rx="0.5" />

    <rect x="29" y="16" width="2" height="2" rx="0.5" />
    <rect x="35" y="16" width="2" height="2" rx="0.5" />
    <rect x="29" y="23" width="2" height="2" rx="0.5" />
    <rect x="35" y="23" width="2" height="2" rx="0.5" />
    <rect x="29" y="30" width="2" height="2" rx="0.5" />
    <rect x="35" y="30" width="2" height="2" rx="0.5" />
    <rect x="29" y="37" width="2" height="2" rx="0.5" />
    <rect x="35" y="37" width="2" height="2" rx="0.5" />

    <rect x="46" y="26" width="2" height="2" rx="0.5" />
    <rect x="50" y="26" width="2" height="2" rx="0.5" />
    <rect x="46" y="32" width="2" height="2" rx="0.5" />
    <rect x="50" y="32" width="2" height="2" rx="0.5" />
  </g>

  <path
    d="M6 58H58"
    stroke="currentColor"
    stroke-width="3"
    stroke-linecap="round"
  />
</svg>