<svg
  xmlns="http://www.w3.org/2000/svg"
  viewBox="0 0 64 64"
  fill="none"
>
  <path
    d="M27 22C27 26.4183 24.9853 30 22.5 30C20.0147 30 18 26.4183 18 22C18 17.5817 20.0147 14 22.5 14C24.9853 14 27 17.5817 27 22Z"
    fill="currentColor"
  />

  <path
    d="M46 22C46 26.4183 43.9853 30 41.5 30C39.0147 30 37 26.4183 37 22C37 17.5817 39.0147 14 41.5 14C43.9853 14 46 17.5817 46 22Z"
    fill="currentColor"
  />

  <path
    d="M16 37C16 41.4183 13.9853 45 11.5 45C9.01472 45 7 41.4183 7 37C7 32.5817 9.01472 29 11.5 29C13.9853 29 16 32.5817 16 37Z"
    fill="currentColor"
  />

  <path
    d="M57 37C57 41.4183 54.9853 45 52.5 45C50.0147 45 48 41.4183 48 37C48 32.5817 50.0147 29 52.5 29C54.9853 29 57 32.5817 57 37Z"
    fill="currentColor"
  />

  <path
    d="M32 30C21 30 16 39 16 47C16 54 22 58 32 58C42 58 48 54 48 47C48 39 43 30 32 30Z"
    fill="currentColor"
  />
</svg>