<svg xmlns="http://www.w3.org/2000/svg" viewBox="0 0 120 24" fill="currentColor">
  <path d="M5 12.8
    C9 11.9 12 12.2 16 11.6
    C20 11 24 12.4 28 11.3
    C32 10.4 36 12.9 40 11.7
    C44 10.6 48 12.6 52 11.5
    C56 10.5 60 12.3 64 11.4
    C68 10.4 72 12.4 76 11.6
    C80 10.8 84 12.9 88 11.8
    C92 10.8 96 12.5 100 11.7
    C105 10.8 110 12.6 115 11.9
    L115 15.3
    C110 16.1 105 14.4 100 15.1
    C96 15.9 92 14.1 88 15.2
    C84 16.3 80 14.3 76 15.1
    C72 15.9 68 14.1 64 15.1
    C60 16 56 14.2 52 15.2
    C48 16.1 44 14.1 40 15.3
    C36 16.4 32 13.9 28 15
    C24 16.1 20 14.6 16 15.3
    C12 15.9 9 15.4 5 16.4
    Z"/>
</svg>