<svg xmlns="http://www.w3.org/2000/svg" shape-rendering="geometricPrecision" text-rendering="geometricPrecision" image-rendering="optimizeQuality" fill-rule="evenodd" clip-rule="evenodd" viewBox="0 0 512.001 89.454"><path fill-rule="nonzero" d="M491.399 57.242l4.719 27.67.019.144a3.894 3.894 0 01-2.726 4.223c-.95.289-2.01.215-2.955-.288l-24.784-13.257-24.61 13.162c-1.714 1.044-3.971.583-5.153-1.06a3.87 3.87 0 01-.685-2.888l4.561-27.688-19.467-19.847a3.883 3.883 0 01-.442-5.163 3.876 3.876 0 012.56-1.518l27.218-3.897 12.549-24.699a3.89 3.89 0 014.68-1.942c.95.311 1.775.984 2.26 1.944l12.432 24.699 27.096 3.896A3.895 3.895 0 01512 34.532a3.869 3.869 0 01-1.098 2.76l-19.503 19.95zm-104.774 0l4.72 27.67.018.144a3.893 3.893 0 01-2.726 4.223 3.87 3.87 0 01-2.954-.288l-24.785-13.257-24.609 13.162c-1.714 1.044-3.971.583-5.154-1.06a3.869 3.869 0 01-.684-2.888l4.56-27.688-19.467-19.847a3.884 3.884 0 01-.442-5.163 3.876 3.876 0 012.56-1.518l27.218-3.897 12.548-24.699a3.89 3.89 0 014.681-1.942 3.87 3.87 0 012.26 1.944l12.433 24.699 27.095 3.896a3.896 3.896 0 013.33 3.799 3.874 3.874 0 01-1.099 2.76l-19.503 19.95zm-314.324 0l4.719 27.67.019.144c.232 1.874-.873 3.658-2.726 4.223a3.872 3.872 0 01-2.789-.205 1.624 1.624 0 01-.29-.15l-24.66-13.19-24.609 13.162c-1.714 1.044-3.971.583-5.154-1.06a3.87 3.87 0 01-.684-2.888l4.561-27.688L1.221 37.414a3.89 3.89 0 012.117-6.682l27.218-3.897 12.55-24.7a3.889 3.889 0 016.94.003l12.432 24.699 27.095 3.896a3.898 3.898 0 013.33 3.799 3.868 3.868 0 01-1.099 2.76l-19.503 19.95zm104.775 0l4.72 27.67.018.144a3.893 3.893 0 01-2.726 4.223 3.87 3.87 0 01-2.954-.288l-24.785-13.257-24.609 13.162c-1.714 1.044-3.971.583-5.154-1.06a3.87 3.87 0 01-.684-2.888l4.561-27.688-19.467-19.847a3.882 3.882 0 01-.442-5.163 3.876 3.876 0 012.559-1.518l27.218-3.897 12.55-24.7a3.889 3.889 0 014.68-1.941 3.871 3.871 0 012.259 1.944l12.433 24.699 27.095 3.896a3.899 3.899 0 013.33 3.799 3.868 3.868 0 01-1.099 2.76l-19.503 19.95zm104.775 0l4.719 27.67.018.144a3.893 3.893 0 01-2.725 4.223c-.95.289-2.01.215-2.955-.288l-24.784-13.257-24.61 13.162c-1.714 1.044-3.971.583-5.153-1.06a3.87 3.87 0 01-.685-2.888l4.561-27.688-19.467-19.847a3.883 3.883 0 01-.442-5.163 3.876 3.876 0 012.56-1.518l27.217-3.897 12.55-24.699a3.89 3.89 0 014.68-1.942 3.876 3.876 0 012.26 1.944l12.432 24.699 27.096 3.896a3.895 3.895 0 013.329 3.799 3.869 3.869 0 01-1.098 2.76l-19.503 19.95z"/></svg>