<svg xmlns="http://www.w3.org/2000/svg" shape-rendering="geometricPrecision" text-rendering="geometricPrecision" image-rendering="optimizeQuality" fill-rule="evenodd" clip-rule="evenodd" viewBox="0 0 512 190.285"><path d="M0 128.016c32.208-3.503 65.126-11.155 82.935-11.576 5.87-.14 13.175.651 5.825 3.93-17.743 7.914-39.85 13.414-61.461 14.29 4.787 1.077 9.548 2.473 15.993 4.683 42.916 14.717 91.165 23.694 138.308 23.756 39.015.053 79.822-5.736 115.535-22.126-13.263-12.299-25.007-25.723-35.154-40.787-21.629-32.106-31.567-79.665 13.75-96.773 37.675-14.221 72.262 18.318 76.731 54.788 3.222 26.289-6.915 45.474-19.352 63.408-5.258 7.58-11.717 14.261-19.168 20.104C406.881 207.19 494.724 163.992 512 72.774c-4.91 112.345-125.544 138.675-205.932 74.569-70.469 46.003-210.713 30.084-282.411-7.501 9.463 9.291 17.535 22.446 22.866 35.006.79 1.859 4.569 8.993 4.29 12.878-.102 1.444-.766 2.442-2.348 2.553-.903.063-1.863-.407-2.868-1.35-2.92-2.749-9.199-13.053-15.44-23.058C20.896 151.03 12.885 140.155 0 128.016zm304.367 6.573c-13.918-12.906-26.764-28.048-37.028-43.982-16.542-25.678-22.453-56.275 1.472-72.95 14.806-10.319 30.931-9.682 44.76-1.39 49.808 29.872 25.747 96.995-9.204 118.322z"/></svg>